<?xml version="1.0" standalone="no"?>
<!DOCTYPE svg PUBLIC "-//W3C//DTD SVG 20010904//EN"
 "http://www.w3.org/TR/2001/REC-SVG-20010904/DTD/svg10.dtd">
<svg version="1.0" xmlns="http://www.w3.org/2000/svg"
 width="260.000000pt" height="260.000000pt" viewBox="0 0 260.000000 260.000000"
 preserveAspectRatio="xMidYMid meet">
<metadata>
Created by potrace 1.14, written by Peter Selinger 2001-2017
</metadata>
<g transform="translate(0.000000,260.000000) scale(0.100000,-0.100000)"
fill="#000000" stroke="none">
<path d="M1210 2217 c28 -63 34 -141 14 -183 -9 -19 -21 -34 -28 -35 -6 0 34
-13 89 -29 157 -44 294 -101 430 -180 22 -13 49 -28 60 -34 68 -38 209 -144
285 -215 57 -53 77 -63 65 -33 -8 18 -22 71 -31 112 -3 14 -12 48 -20 77 -8
29 -17 64 -20 79 -3 15 -7 31 -10 36 -3 4 -7 18 -9 30 -13 73 -28 108 -44 104
-32 -10 -97 -16 -186 -16 -116 0 -180 6 -304 30 -29 5 -55 10 -57 10 -1 0 -11
15 -23 33 -11 17 -28 41 -38 52 -10 11 -30 36 -45 56 -29 38 -134 149 -142
149 -3 0 4 -19 14 -43z"/>
<path d="M969 1956 c-3 -3 -22 -6 -43 -8 -20 -1 -40 -6 -42 -10 -3 -5 -9 -6
-14 -3 -5 3 -11 1 -15 -5 -3 -5 -15 -10 -26 -10 -11 0 -43 -15 -72 -34 -138
-89 -212 -211 -232 -381 -7 -63 -7 -172 -1 -205 5 -24 1 -27 -39 -38 -98 -26
-207 -124 -265 -239 -19 -38 -37 -70 -40 -73 -18 -17 -63 -210 -49 -210 4 0
21 19 38 43 64 93 156 174 246 218 41 19 66 24 140 24 108 0 158 -21 239 -100
49 -48 136 -182 136 -210 0 -8 5 -17 10 -20 6 -3 10 -15 10 -26 0 -32 16 -21
19 14 19 181 -27 314 -156 445 -40 41 -77 71 -82 67 -6 -3 -11 -1 -11 5 0 6
-12 16 -27 22 -16 7 -38 18 -50 26 l-22 13 31 52 c83 143 184 181 325 124 52
-21 177 -97 193 -117 3 -3 14 -13 26 -21 44 -30 126 -103 137 -123 6 -12 14
-52 17 -91 l5 -70 38 38 c22 20 41 37 44 37 4 0 57 -36 119 -80 62 -44 117
-80 120 -80 4 0 16 -7 26 -17 10 -9 20 -14 22 -12 2 2 6 31 8 65 5 61 40 150
75 190 27 30 112 76 136 72 32 -5 32 -27 0 -40 -15 -6 -31 -11 -34 -10 -4 1
-27 -16 -52 -38 -55 -49 -78 -103 -82 -196 l-2 -72 72 -35 c39 -20 92 -43 116
-52 24 -9 53 -21 64 -27 12 -5 27 -10 35 -12 8 -1 47 -12 85 -23 120 -36 156
-41 266 -34 18 1 19 3 9 16 -7 8 -17 15 -23 15 -11 0 -140 64 -170 85 -40 28
4 22 99 -11 54 -20 106 -38 115 -41 15 -4 16 1 8 44 -11 55 -34 134 -55 180
-8 17 -14 34 -14 38 0 24 -135 265 -160 285 -3 3 -13 15 -22 28 -53 78 -267
282 -296 282 -6 0 -12 4 -14 9 -4 12 -219 151 -234 151 -7 0 -14 3 -16 8 -3 8
-128 72 -140 72 -4 0 -31 11 -60 24 -29 13 -69 27 -88 31 -19 4 -39 10 -45 14
-5 3 -12 6 -15 6 -6 1 -66 13 -100 20 -35 8 -215 16 -221 11z m1297 -894 c3
-80 -98 -99 -124 -23 -20 57 39 103 93 72 23 -13 30 -25 31 -49z"/>
</g>
</svg>
